<svg width="34" height="34" viewBox="0 0 34 34" fill="none" xmlns="http://www.w3.org/2000/svg">
<path d="M6.57345 26.22C8.30975 25.0074 10.0323 24.0772 11.741 23.4295C13.4497 22.7819 15.2825 22.458 17.2393 22.458C19.196 22.458 21.0357 22.7819 22.7582 23.4295C24.4807 24.0772 26.2101 25.0074 27.9464 26.22C29.1591 24.7318 30.0203 23.2297 30.5302 21.7139C31.04 20.1981 31.295 18.5996 31.295 16.9184C31.295 12.9222 29.9514 9.58053 27.2643 6.89341C24.5772 4.20629 21.2355 2.86273 17.2393 2.86273C13.243 2.86273 9.90135 4.20629 7.21423 6.89341C4.52711 9.58053 3.18355 12.9222 3.18355 16.9184C3.18355 18.5996 3.44537 20.1981 3.96901 21.7139C4.49266 23.2297 5.3608 24.7318 6.57345 26.22ZM17.2393 18.1587C15.6408 18.1587 14.2972 17.6143 13.2086 16.5257C12.1199 15.4371 11.5756 14.0935 11.5756 12.495C11.5756 10.8965 12.1199 9.55297 13.2086 8.46434C14.2972 7.37571 15.6408 6.8314 17.2393 6.8314C18.8378 6.8314 20.1813 7.37571 21.2699 8.46434C22.3586 9.55297 22.9029 10.8965 22.9029 12.495C22.9029 14.0935 22.3586 15.4371 21.2699 16.5257C20.1813 17.6143 18.8378 18.1587 17.2393 18.1587ZM17.2393 33.4546C14.9793 33.4546 12.8434 33.0205 10.8315 32.1524C8.81961 31.2842 7.06265 30.0991 5.56061 28.5971C4.05858 27.0951 2.87349 25.3381 2.00535 23.3262C1.1372 21.3143 0.703125 19.1784 0.703125 16.9184C0.703125 14.6309 1.1372 12.4881 2.00535 10.49C2.87349 8.4919 4.05858 6.74183 5.56061 5.2398C7.06265 3.73777 8.81961 2.55268 10.8315 1.68453C12.8434 0.816382 14.9793 0.382309 17.2393 0.382309C19.5268 0.382309 21.6696 0.816382 23.6677 1.68453C25.6658 2.55268 27.4159 3.73777 28.9179 5.2398C30.4199 6.74183 31.605 8.4919 32.4732 10.49C33.3413 12.4881 33.7754 14.6309 33.7754 16.9184C33.7754 19.1784 33.3413 21.3143 32.4732 23.3262C31.605 25.3381 30.4199 27.0951 28.9179 28.5971C27.4159 30.0991 25.6658 31.2842 23.6677 32.1524C21.6696 33.0205 19.5268 33.4546 17.2393 33.4546ZM17.2393 30.9742C18.7551 30.9742 20.2364 30.7537 21.6833 30.3127C23.1303 29.8717 24.5565 29.1001 25.9621 27.9977C24.5565 27.0055 23.1234 26.2476 21.6627 25.7239C20.202 25.2003 18.7275 24.9385 17.2393 24.9385C15.751 24.9385 14.2765 25.2003 12.8158 25.7239C11.3552 26.2476 9.92202 27.0055 8.51645 27.9977C9.92202 29.1001 11.3483 29.8717 12.7952 30.3127C14.2421 30.7537 15.7234 30.9742 17.2393 30.9742ZM17.2393 15.6782C18.1763 15.6782 18.9411 15.382 19.5336 14.7894C20.1262 14.1969 20.4225 13.4321 20.4225 12.495C20.4225 11.558 20.1262 10.7932 19.5336 10.2006C18.9411 9.60809 18.1763 9.31182 17.2393 9.31182C16.3022 9.31182 15.5374 9.60809 14.9449 10.2006C14.3523 10.7932 14.0561 11.558 14.0561 12.495C14.0561 13.4321 14.3523 14.1969 14.9449 14.7894C15.5374 15.382 16.3022 15.6782 17.2393 15.6782Z" fill="#727272"/>
</svg>
